<?xml version="1.0" encoding="UTF-8"?>
<svg xmlns="http://www.w3.org/2000/svg" xmlns:xlink="http://www.w3.org/1999/xlink" viewBox="0 0 300 300">
  <defs>
    <style>
      .j {
        fill: url(#e);
      }

      .k {
        fill: #bdbab5;
      }

      .l {
        fill: #494d4c;
      }

      .m {
        fill: #454948;
      }

      .n {
        fill: #808382;
      }

      .o {
        fill: #949089;
      }

      .p {
        fill: #a19c95;
      }

      .q {
        fill: #a19c95;
      }

      .r {
        fill: #222221;
      }

      .s {
        fill: #e8e8e8;
      }
    </style>
    <radialGradient id="e" cx="90.061" cy="166.037" fx="90.061" fy="166.037" r="39.934" gradientUnits="userSpaceOnUse">
      <stop offset=".174" stop-color="#777573"/>
      <stop offset="1" stop-color="#a19c95"/>
    </radialGradient>
  </defs>
  <g id="d" data-name="CH_podklad_barva">
    <path class="p" d="M258.14,153.36h-20.225c-.639-2.969-1.551-5.836-2.697-8.581l-10.937.568,1.758-7.036-11.608,2.255,2.814-8.23-6.918-2.14,3.977-9.24c-7.29-4.226-15.754-6.652-24.788-6.652h-16.233c.322-6.626.567-16.094.621-29.725l-14-.054c-.04,10.181-.278,21.595-.65,29.78h-18.89c-.554-8.002-.799-19.539-.67-29.663l-13.998-.179c-.173,13.479.087,23.02.584,29.842h-21.837c-3.915-7.429-7.752-14.341-13.083-19.039-5.193-4.575-14.01-8.723-26.521-2.502l6.234,12.536c7.115-3.538,10.723-2.229,17.4,9.096-25.994,1.504-46.612,23.053-46.612,49.424,0,27.347,22.169,49.516,49.515,49.516h98.142c26.155,0,47.558-20.284,49.375-45.976h19.248v-14"/>
    <path class="q" d="M281.558,189.283c-19.079,8.903-24.026,7.085-24.824,6.63-1.066-.607-1.829-3.172-2.267-7.621l-13.933,1.373c.678,6.879,2.309,14.446,9.268,18.411,7.759,4.422,19.027,2.596,37.677-6.106l-5.92-12.688Z"/>
    <circle class="j" cx="90.061" cy="166.037" r="39.934"/>
  </g>
  <g id="g" data-name="CH_odraz_a_pruhy">
    <path class="l" d="M113.114,213.336c8.608,0,15.585-22.169,15.585-49.516s-6.978-49.515-15.585-49.515h17.947c8.607,0,15.585,22.169,15.585,49.515s-6.978,49.516-15.585,49.516h-17.947"/>
    <path class="l" d="M144.955,213.336c8.608,0,15.585-22.169,15.585-49.516s-6.978-49.515-15.585-49.515h17.948c8.607,0,15.585,22.169,15.585,49.515s-6.978,49.516-15.585,49.516h-17.948"/>
    <path class="l" d="M210.328,163.82c0-24.725-5.705-45.215-13.16-48.915-2.495-.387-5.048-.6-7.652-.6h-12.72c8.607,0,15.585,22.169,15.585,49.515s-6.978,49.516-15.585,49.516h12.72c2.601,0,5.151-.209,7.643-.596,7.46-3.689,13.169-24.185,13.169-48.92"/>
    <path class="k" d="M122.192,123.567h-10.425c-4.695,0-8.5,3.806-8.5,8.5s3.805,8.5,8.5,8.5h15.111c-1.132-6.748-2.742-12.568-4.686-17M154.033,123.567h-13.894c1.943,4.432,3.553,10.252,4.686,17h13.894c-1.132-6.748-2.742-12.568-4.685-17M177.629,123.567h-5.649c1.943,4.432,3.553,10.252,4.685,17h.964c4.695,0,8.5-3.806,8.5-8.5s-3.806-8.5-8.5-8.5"/>
    <path class="n" d="M140.139,123.567h-17.947c1.944,4.432,3.553,10.252,4.686,17h17.947c-1.132-6.748-2.742-12.568-4.686-17"/>
    <path class="n" d="M171.98,123.567h-17.947c1.943,4.432,3.553,10.252,4.685,17h17.947c-1.132-6.748-2.742-12.568-4.685-17"/>
    <path class="s" d="M189.899,213.335c-.024,0-.045,0-.068,0,.021,0,.047,0,.068,0M190.059,213.333c-.024,0-.049,0-.073,0,.023,0,.05,0,.073,0M190.216,213.331c-.024,0-.048,0-.072,0,.025,0,.047,0,.072,0M190.373,213.329c-.025,0-.049,0-.074.001.025,0,.05,0,.074-.001M190.529,213.326c-.025,0-.047,0-.073.001.025,0,.048,0,.073-.001M190.688,213.322c-.025,0-.052.001-.077.002.025,0,.052-.001.077-.002M190.841,213.319c-.024,0-.05.001-.074.002.025,0,.049-.001.074-.002M191,213.314c-.025,0-.05.001-.075.002.025,0,.051-.001.075-.002M191.156,213.31c-.025,0-.052.002-.077.002.025,0,.052-.002.077-.002M191.313,213.304c-.027,0-.054.002-.081.003.026,0,.054-.002.081-.003M191.468,213.298c-.027,0-.054.002-.081.003.026,0,.055-.002.081-.003M191.625,213.292c-.027.001-.057.002-.083.003.028,0,.055-.002.083-.003M191.78,213.285c-.028.001-.057.002-.086.004.028-.001.058-.002.086-.004M191.937,213.278c-.03.001-.06.003-.09.004.03-.001.06-.003.09-.004M192.091,213.27c-.032.001-.06.003-.092.004.03-.001.062-.003.092-.004M192.247,213.262c-.031.002-.063.003-.094.005.031-.001.063-.003.094-.005M192.403,213.253c-.036.002-.069.004-.105.006.034-.002.071-.004.105-.006M192.558,213.244c-.039.002-.078.005-.117.007.04-.002.078-.005.117-.007M238.908,167.36h-.016c-1.745,24.684-21.569,44.375-46.317,45.883,24.75-1.507,44.589-21.197,46.333-45.883"/>
    <path class="o" d="M238.531,156.825c-2.588,18.292-15.167,33.372-32.039,39.532-2.356,8.578-5.628,14.552-9.332,16.384-2.407.374-4.868.581-7.377.595.017,0,.031,0,.047,0,.024,0,.044,0,.068,0,.03,0,.058,0,.088,0,.024,0,.049,0,.073,0,.028,0,.056,0,.084,0,.024,0,.048,0,.072,0,.027,0,.057,0,.083-.001.025,0,.049,0,.074-.001.028,0,.055,0,.083-.001.025,0,.047,0,.073-.001.027,0,.056,0,.082-.002.025,0,.052-.001.077-.002.027,0,.053-.001.079-.002.024,0,.05-.001.074-.002.028,0,.055-.001.083-.002.025,0,.05-.001.075-.002.026,0,.052-.002.079-.002.025,0,.052-.002.077-.002.026,0,.051-.002.077-.003.027,0,.054-.002.081-.003.025,0,.049-.002.073-.003.027,0,.054-.002.081-.003.025,0,.048-.002.073-.003.027,0,.057-.002.083-.003.023,0,.046-.002.069-.003.029-.001.058-.002.086-.004.023-.001.044-.002.067-.003.03-.001.06-.003.09-.004.021,0,.041-.002.062-.003.031-.001.06-.003.092-.004.021-.001.041-.002.062-.003.031-.002.063-.003.094-.005.017,0,.034-.002.051-.003.036-.002.069-.004.105-.006.013,0,.024-.001.038-.002.04-.002.078-.005.117-.007.005,0,.013,0,.018-.001,24.748-1.508,44.572-21.199,46.317-45.883h.016c.083-1.169.125-2.349.125-3.539h0c0-2.376-.178-4.71-.502-6.996"/>
    <path class="s" d="M41.86,163.82h0c0,27.347,22.168,49.516,49.515,49.516-27.346,0-49.515-22.169-49.515-49.516M41.86,163.688c0,.044,0,.088,0,.132h0c0-.043,0-.089,0-.132M41.86,163.575c0,.016,0,.032,0,.049,0-.016,0-.033,0-.049"/>
    <path class="o" d="M155.813,199.343h-13.894c-2.806,8.66-6.636,13.993-10.857,13.993h13.894c4.221,0,8.051-5.333,10.858-13.993M187.654,199.343h-13.894c-2.806,8.66-6.636,13.993-10.857,13.993h13.894c4.221,0,8.051-5.333,10.857-13.993M42.361,156.825c-.312,2.207-.489,4.459-.501,6.75,0,.016,0,.033,0,.049v.064c0,.043,0,.089,0,.132h0c0,27.347,22.169,49.516,49.515,49.516h21.739c4.221,0,8.051-5.333,10.858-13.993h-32.597c-24.97,0-45.613-18.487-49.014-42.519"/>
    <path class="s" d="M189.726,213.336h-.003c-.016,0-.034,0-.05,0,.018,0,.035,0,.053,0"/>
    <path class="o" d="M189.52,213.336h-.003.003M189.723,213.336c-.022,0-.045,0-.068,0h.018c.016,0,.034,0,.05,0"/>
    <path class="m" d="M141.919,199.343h-17.947c-2.807,8.66-6.636,13.993-10.858,13.993h17.947c4.221,0,8.051-5.333,10.857-13.993"/>
    <path class="m" d="M173.76,199.343h-17.947c-2.806,8.66-6.636,13.993-10.858,13.993h17.948c4.221,0,8.051-5.333,10.857-13.993"/>
    <path class="m" d="M206.491,196.356c-5.294,1.933-11.01,2.987-16.974,2.987h-1.864c-2.807,8.66-6.636,13.993-10.857,13.993h12.724c.045,0,.091,0,.135,0,.023,0,.045,0,.068,0h.003c.018,0,.038,0,.057,0,2.509-.014,4.97-.221,7.377-.595,3.704-1.832,6.976-7.806,9.332-16.384"/>
  </g>
  <g id="h" data-name="CHMELÁK">
    <path class="r" d="M82.332,161.223c-1.787,0-3.573-.68-4.934-2.041-1.352-1.351-3.705-1.35-5.057,0-.664.664-1.741.664-2.405,0-.664-.665-.664-1.741,0-2.405,1.317-1.317,3.069-2.043,4.933-2.043s3.616.726,4.934,2.043c1.35,1.351,3.706,1.35,5.056,0,2.721-2.72,7.147-2.72,9.866,0,1.394,1.393,3.663,1.396,5.057,0,.666-.664,1.74-.664,2.406,0,.664.664.664,1.741,0,2.405-2.722,2.721-7.148,2.72-9.868,0-1.394-1.395-3.662-1.393-5.056,0-1.359,1.36-3.146,2.04-4.933,2.041Z"/>
    <g>
      <path class="r" d="M105.417,175.474l3.757-3.757c.664-.664.664-1.741,0-2.405-.664-.664-1.739-.664-2.405,0l-3.756,3.757-3.756-3.757c-.666-.664-1.741-.664-2.405,0-.665.664-.665,1.741,0,2.405l3.757,3.757-3.757,3.757c-.664.664-.664,1.741,0,2.405.332.332.767.498,1.202.498s.87-.166,1.203-.498l3.756-3.757,3.756,3.757c.333.332.768.498,1.203.498s.87-.166,1.202-.498c.665-.664.665-1.741,0-2.405l-3.757-3.757Z"/>
      <path class="r" d="M73.828,169.311c-.664-.664-1.739-.664-2.405,0l-3.756,3.757-3.756-3.757c-.666-.664-1.741-.664-2.405,0-.665.664-.665,1.741,0,2.405l3.757,3.757-3.757,3.757c-.664.664-.664,1.741,0,2.405.332.332.767.498,1.202.498s.87-.166,1.203-.498l3.756-3.757,3.756,3.757c.333.332.768.498,1.203.498s.87-.166,1.202-.498c.665-.664.665-1.741,0-2.405l-3.757-3.757,3.757-3.757c.664-.664.664-1.741,0-2.405Z"/>
    </g>
  </g>
</svg>